# xmcd
#
# Track frame offsets: 
#        150
#        13723
#        29013
#        41842
#        58075
#        68715
#        83590
#        93410
#        107988
#        119562
#
# Disc length: 1720 seconds
#
# Revision: 0
# Processed by: cddbd v1.5.2PL0 Copyright (c) Steve Scherf et al.
# Submitted via: ExactAudioCopyFreeDBPlugin 1.0
#
DISCID=8806b60a
DTITLE=Har Mar Superstar - Bye Bye 17
DYEAR=2013
DGENRE=Soul
TTITLE0=Lady, You Shot Me
TTITLE1=Prisoner
TTITLE2=Everywhere I'm Local
TTITLE3=Restless Leg
TTITLE4=12:12
TTITLE5=We Don't Sleep
TTITLE6=www
TTITLE7=Rhythm Bruises
TTITLE8=Don't Make Me Hit You
TTITLE9=Late Night Morning Light
EXTD=
EXTT0=
EXTT1=
EXTT2=
EXTT3=
EXTT4=
EXTT5=
EXTT6=
EXTT7=
EXTT8=
EXTT9=
PLAYORDER=
